<svg width="34" height="35" viewBox="0 0 34 35" fill="none" xmlns="http://www.w3.org/2000/svg">
<path fill-rule="evenodd" clip-rule="evenodd" d="M33.5197 17.4911C33.5205 16.3286 33.4203 15.1663 33.22 14.0191L17.0977 14.0171V20.6011H26.3326C25.951 22.7285 24.7162 24.6072 22.9146 25.8011L22.9146 30.0731H28.4246C31.8278 26.7897 33.6793 22.2173 33.5197 17.4911Z" fill="#4285F4"/>
<path fill-rule="evenodd" clip-rule="evenodd" d="M17.0978 34.1963C21.2632 34.3131 25.3164 32.8368 28.4308 30.0682L22.9188 25.7972C20.2306 27.5167 16.9004 27.9028 13.89 26.8439C10.8797 25.785 8.5246 23.399 7.50482 20.3752H1.81885V24.7753C4.72174 30.5511 10.6335 34.1963 17.0978 34.1963Z" fill="#34A853"/>
<path fill-rule="evenodd" clip-rule="evenodd" d="M7.49774 20.3753C6.78162 18.2521 6.78162 15.9525 7.49774 13.8293V9.42529H1.81873C-0.606201 14.256 -0.606201 19.9485 1.81873 24.7793L7.49774 20.3753Z" fill="#FBBC04"/>
<path fill-rule="evenodd" clip-rule="evenodd" d="M17.0978 6.76721C19.5358 6.72778 21.8915 7.64831 23.6568 9.3302L28.5378 4.44922C25.4421 1.54456 21.3425 -0.0493774 17.0978 0.00115967C10.6327 0.00012207 4.72009 3.64655 1.81885 9.42419L7.4978 13.8242C8.85425 9.65662 12.7154 6.81671 17.0978 6.76318V6.76721Z" fill="#EA4335"/>
</svg>
