<svg width="788" height="338" viewBox="0 0 788 338" fill="none" xmlns="http://www.w3.org/2000/svg">
<path fill-rule="evenodd" clip-rule="evenodd" d="M787 338H1.52588e-05V174C-0.00405884 162.242 1.17891 150.494 3.53098 138.953C8.08768 116.689 16.9854 95.5405 29.716 76.7153C48.6017 48.7412 75.1937 26.8433 106.271 13.6743C116.797 9.2251 127.738 5.82886 138.933 3.53516C150.474 1.18188 162.222 -0.00244141 174 0.000244141H787V338V338Z" fill="#AFAAC1"/>
<path fill-rule="evenodd" clip-rule="evenodd" d="M788 338H16V174C15.9947 163.211 17.0812 152.407 19.2429 141.795C23.4321 121.314 31.6156 101.86 43.326 84.5432C60.6927 58.8186 85.147 38.6824 113.726 26.5742C123.405 22.4832 133.465 19.3601 143.759 17.2512C154.37 15.0876 165.171 13.9983 176 14.0002H788V338V338Z" fill="black"/>
<path fill-rule="evenodd" clip-rule="evenodd" d="M787 338H77V168C76.9697 148.873 82.6825 130.175 93.3987 114.328C103.817 98.8936 118.487 86.811 135.632 79.5442C147.454 74.541 160.163 71.9753 173 72.0002H787V338V338Z" fill="#1E1E1E"/>
<path fill-rule="evenodd" clip-rule="evenodd" d="M767.8 133H334C306.386 133 284 110.614 284 83.0002C284 55.386 306.386 33.0002 334 33.0002H767.8C774.39 32.9885 780.917 34.2874 787 36.8213V129.179C780.917 131.713 774.39 133.012 767.8 133H767.8Z" fill="black"/>
<path fill-rule="evenodd" clip-rule="evenodd" d="M496 86.0002C496 83.515 496.879 81.3936 498.636 79.6363C500.393 77.8789 502.515 77.0002 505 77.0002H602C604.485 77.0002 606.607 77.8789 608.364 79.6363C610.121 81.3936 611 83.515 611 86.0002C611 88.4855 610.121 90.6068 608.364 92.3642C606.607 94.1216 604.485 95.0002 602 95.0002H505C502.515 95.0002 500.393 94.1216 498.636 92.3642C496.879 90.6068 496 88.4855 496 86.0002V86.0002Z" fill="#2B2B29"/>
<circle cx="657" cy="86.0002" r="17" fill="#171717"/>
<circle cx="657" cy="86.0002" r="16" stroke="#2B2B29" stroke-width="2"/>
<circle cx="657" cy="86.0002" r="6" fill="#232A5E"/>
<path fill-rule="evenodd" clip-rule="evenodd" d="M781 303H125C116.163 303 109 295.837 109 287V245C109 236.164 116.163 229 125 229H781C783.426 228.993 785.82 229.543 788 230.608V301.391C785.821 302.456 783.426 303.007 781 303V303Z" fill="#323234"/>
<path d="M434.169 275.154L439.928 258.509H442.133L434.306 279.974C434.146 280.395 433.941 280.862 433.69 281.375C433.451 281.888 433.132 282.378 432.733 282.845C432.346 283.323 431.856 283.711 431.264 284.007C430.683 284.314 429.971 284.468 429.127 284.468C428.911 284.468 428.632 284.44 428.29 284.383C427.96 284.337 427.72 284.292 427.572 284.246L427.555 282.52C427.681 282.554 427.863 282.583 428.102 282.605C428.341 282.628 428.507 282.64 428.598 282.64C429.338 282.64 429.959 282.514 430.46 282.264C430.973 282.013 431.4 281.637 431.742 281.136C432.084 280.646 432.386 280.031 432.648 279.29L434.169 275.154ZM428.786 258.509L434.682 274.385L435.229 276.521L433.742 277.359L426.564 258.509H428.786ZM443.927 268.045V267.481C443.927 266.137 444.121 264.895 444.508 263.755C444.896 262.616 445.448 261.631 446.166 260.799C446.895 259.967 447.767 259.323 448.781 258.868C449.795 258.401 450.923 258.167 452.165 258.167C453.418 258.167 454.551 258.401 455.565 258.868C456.579 259.323 457.451 259.967 458.18 260.799C458.909 261.631 459.468 262.616 459.855 263.755C460.242 264.895 460.436 266.137 460.436 267.481V268.045C460.436 269.389 460.242 270.631 459.855 271.771C459.468 272.898 458.909 273.878 458.18 274.71C457.462 275.542 456.597 276.191 455.583 276.658C454.569 277.114 453.441 277.342 452.199 277.342C450.945 277.342 449.812 277.114 448.798 276.658C447.784 276.191 446.912 275.542 446.183 274.71C445.454 273.878 444.896 272.898 444.508 271.771C444.121 270.631 443.927 269.389 443.927 268.045ZM445.961 267.481V268.045C445.961 269.059 446.098 270.022 446.371 270.933C446.645 271.833 447.043 272.636 447.567 273.343C448.091 274.038 448.741 274.585 449.516 274.983C450.29 275.382 451.185 275.582 452.199 275.582C453.201 275.582 454.084 275.382 454.848 274.983C455.622 274.585 456.272 274.038 456.796 273.343C457.32 272.636 457.713 271.833 457.975 270.933C458.249 270.022 458.385 269.059 458.385 268.045V267.481C458.385 266.478 458.249 265.527 457.975 264.627C457.713 263.727 457.314 262.924 456.779 262.217C456.255 261.511 455.605 260.953 454.831 260.542C454.056 260.132 453.167 259.927 452.165 259.927C451.162 259.927 450.273 260.132 449.499 260.542C448.735 260.953 448.086 261.511 447.55 262.217C447.026 262.924 446.627 263.727 446.354 264.627C446.092 265.527 445.961 266.478 445.961 267.481ZM476.518 272.728V258.509H478.568V277H476.603L476.518 272.728ZM476.894 269.31L477.953 269.275C477.953 270.438 477.816 271.508 477.543 272.488C477.27 273.468 476.842 274.323 476.261 275.052C475.68 275.781 474.928 276.345 474.005 276.744C473.083 277.142 471.972 277.342 470.673 277.342C469.773 277.342 468.947 277.216 468.195 276.966C467.454 276.704 466.816 276.294 466.281 275.735C465.745 275.177 465.329 274.454 465.033 273.565C464.748 272.676 464.606 271.6 464.606 270.335V258.509H466.64V270.369C466.64 271.36 466.748 272.186 466.964 272.847C467.192 273.508 467.5 274.038 467.887 274.437C468.286 274.835 468.742 275.12 469.254 275.291C469.767 275.462 470.32 275.547 470.912 275.547C472.416 275.547 473.601 275.257 474.467 274.676C475.344 274.095 475.965 273.331 476.33 272.386C476.706 271.429 476.894 270.403 476.894 269.31ZM485.951 261.568V277H483.917V258.509H485.9L485.951 261.568ZM492.497 258.372L492.445 260.252C492.217 260.218 491.995 260.189 491.779 260.167C491.562 260.144 491.329 260.132 491.078 260.132C490.189 260.132 489.409 260.298 488.737 260.628C488.076 260.947 487.518 261.397 487.062 261.978C486.606 262.548 486.259 263.22 486.02 263.995C485.78 264.758 485.644 265.578 485.609 266.456L484.857 266.746C484.857 265.538 484.983 264.416 485.233 263.379C485.484 262.343 485.866 261.437 486.378 260.662C486.903 259.876 487.558 259.266 488.344 258.833C489.141 258.389 490.076 258.167 491.146 258.167C491.409 258.167 491.665 258.19 491.916 258.235C492.178 258.27 492.371 258.315 492.497 258.372ZM497.743 262.457V277H495.709V258.509H497.658L497.743 262.457ZM497.282 266.609L496.376 266.097C496.444 265.003 496.667 263.978 497.042 263.021C497.418 262.063 497.925 261.22 498.563 260.491C499.213 259.762 499.971 259.192 500.836 258.782C501.714 258.372 502.682 258.167 503.742 258.167C504.665 258.167 505.491 258.292 506.22 258.543C506.949 258.794 507.57 259.192 508.083 259.739C508.595 260.286 508.983 260.987 509.245 261.841C509.518 262.696 509.655 263.738 509.655 264.969V277H507.604V264.952C507.604 263.676 507.427 262.679 507.074 261.961C506.721 261.232 506.22 260.713 505.57 260.406C504.921 260.098 504.152 259.944 503.263 259.944C502.283 259.944 501.423 260.161 500.683 260.594C499.953 261.015 499.338 261.568 498.837 262.251C498.347 262.924 497.971 263.647 497.709 264.422C497.447 265.185 497.305 265.914 497.282 266.609ZM526.198 273.685V264.148C526.198 263.271 526.015 262.514 525.651 261.875C525.286 261.237 524.751 260.748 524.044 260.406C523.338 260.064 522.466 259.893 521.43 259.893C520.473 259.893 519.618 260.064 518.866 260.406C518.126 260.736 517.539 261.186 517.106 261.756C516.684 262.314 516.474 262.935 516.474 263.619L514.423 263.602C514.423 262.907 514.594 262.234 514.936 261.585C515.277 260.936 515.762 260.354 516.388 259.842C517.015 259.329 517.761 258.925 518.627 258.628C519.504 258.321 520.467 258.167 521.515 258.167C522.837 258.167 523.999 258.389 525.001 258.833C526.015 259.278 526.807 259.944 527.377 260.833C527.947 261.722 528.231 262.838 528.231 264.183V273.121C528.231 273.759 528.277 274.419 528.368 275.103C528.471 275.787 528.613 276.351 528.795 276.795V277H526.625C526.488 276.59 526.38 276.077 526.3 275.462C526.232 274.835 526.198 274.243 526.198 273.685ZM526.676 266.233L526.71 267.806H522.694C521.646 267.806 520.706 267.903 519.875 268.096C519.054 268.278 518.359 268.552 517.79 268.917C517.22 269.27 516.781 269.697 516.474 270.198C516.177 270.7 516.029 271.269 516.029 271.907C516.029 272.568 516.194 273.172 516.525 273.719C516.867 274.266 517.345 274.704 517.96 275.035C518.587 275.354 519.328 275.513 520.182 275.513C521.321 275.513 522.324 275.302 523.19 274.881C524.067 274.459 524.791 273.907 525.36 273.223C525.93 272.54 526.312 271.793 526.505 270.984L527.394 272.164C527.246 272.733 526.972 273.32 526.574 273.924C526.186 274.516 525.679 275.075 525.053 275.599C524.426 276.111 523.686 276.533 522.831 276.863C521.988 277.182 521.031 277.342 519.96 277.342C518.752 277.342 517.698 277.114 516.798 276.658C515.91 276.202 515.215 275.582 514.713 274.795C514.223 273.998 513.979 273.098 513.979 272.095C513.979 271.184 514.172 270.369 514.56 269.651C514.947 268.922 515.505 268.307 516.234 267.806C516.975 267.293 517.864 266.906 518.9 266.644C519.949 266.37 521.122 266.233 522.421 266.233H526.676ZM535.648 262.337V277H533.598V258.509H535.563L535.648 262.337ZM535.272 266.609L534.281 266.097C534.35 265.003 534.555 263.978 534.896 263.021C535.25 262.063 535.74 261.22 536.366 260.491C536.993 259.762 537.745 259.192 538.622 258.782C539.499 258.372 540.496 258.167 541.613 258.167C542.513 258.167 543.327 258.292 544.057 258.543C544.797 258.782 545.424 259.164 545.937 259.688C546.461 260.201 546.865 260.873 547.15 261.705C547.435 262.536 547.577 263.533 547.577 264.695V277H545.543V264.764C545.543 263.533 545.35 262.57 544.962 261.875C544.586 261.181 544.057 260.685 543.373 260.389C542.701 260.092 541.92 259.944 541.032 259.944C539.984 259.944 539.095 260.161 538.366 260.594C537.648 261.015 537.061 261.568 536.605 262.251C536.161 262.924 535.831 263.647 535.614 264.422C535.398 265.185 535.284 265.914 535.272 266.609ZM547.56 265.003L546.193 265.037C546.25 264.137 546.455 263.277 546.808 262.457C547.173 261.636 547.668 260.907 548.295 260.269C548.922 259.62 549.668 259.107 550.534 258.731C551.411 258.355 552.396 258.167 553.49 258.167C554.447 258.167 555.302 258.298 556.054 258.56C556.806 258.811 557.438 259.215 557.951 259.773C558.475 260.32 558.874 261.021 559.147 261.875C559.42 262.73 559.557 263.755 559.557 264.952V277H557.506V264.935C557.506 263.624 557.313 262.61 556.925 261.893C556.549 261.163 556.025 260.656 555.353 260.372C554.681 260.087 553.895 259.944 552.995 259.944C552.106 259.956 551.326 260.121 550.653 260.44C549.981 260.748 549.417 261.158 548.961 261.67C548.517 262.172 548.175 262.713 547.936 263.294C547.708 263.875 547.583 264.445 547.56 265.003ZM571.896 277.342C570.688 277.342 569.577 277.12 568.563 276.675C567.561 276.231 566.684 275.604 565.932 274.795C565.191 273.986 564.616 273.029 564.206 271.924C563.807 270.808 563.607 269.589 563.607 268.267V267.532C563.607 266.108 563.818 264.821 564.24 263.67C564.661 262.519 565.242 261.534 565.983 260.713C566.723 259.893 567.567 259.266 568.512 258.833C569.469 258.389 570.472 258.167 571.52 258.167C572.694 258.167 573.736 258.378 574.647 258.799C575.559 259.209 576.322 259.796 576.938 260.56C577.564 261.312 578.037 262.206 578.356 263.243C578.675 264.268 578.834 265.402 578.834 266.644V267.891H564.838V266.148H576.801V265.909C576.778 264.872 576.567 263.903 576.168 263.003C575.781 262.092 575.2 261.351 574.425 260.782C573.651 260.212 572.682 259.927 571.52 259.927C570.654 259.927 569.857 260.11 569.127 260.474C568.41 260.839 567.789 261.363 567.265 262.046C566.752 262.719 566.353 263.522 566.068 264.456C565.795 265.379 565.658 266.404 565.658 267.532V268.267C565.658 269.292 565.806 270.25 566.103 271.138C566.41 272.015 566.843 272.79 567.401 273.462C567.971 274.135 568.643 274.659 569.418 275.035C570.193 275.411 571.047 275.599 571.981 275.599C573.075 275.599 574.044 275.399 574.887 275C575.73 274.59 576.487 273.947 577.16 273.069L578.441 274.061C578.043 274.653 577.541 275.2 576.938 275.701C576.345 276.202 575.633 276.601 574.801 276.897C573.97 277.194 573.001 277.342 571.896 277.342ZM582.68 275.752C582.68 275.354 582.805 275.018 583.056 274.744C583.318 274.459 583.671 274.317 584.115 274.317C584.571 274.317 584.93 274.454 585.192 274.727C585.454 275 585.585 275.342 585.585 275.752C585.585 276.14 585.454 276.47 585.192 276.744C584.93 277.017 584.571 277.154 584.115 277.154C583.671 277.154 583.318 277.017 583.056 276.744C582.805 276.47 582.68 276.14 582.68 275.752ZM596.369 272.676L600.829 258.509H602.265L601.41 262.32L596.745 277H595.309L596.369 272.676ZM591.737 258.509L595.651 272.762L596.488 277H595.001L589.635 258.509H591.737ZM607.819 272.71L611.63 258.509H613.732L608.366 277H606.896L607.819 272.71ZM602.555 258.509L606.947 272.557L608.058 277H606.623L601.854 262.303L601.051 258.509H602.555ZM628.908 273.685V264.148C628.908 263.271 628.725 262.514 628.361 261.875C627.996 261.237 627.461 260.748 626.754 260.406C626.048 260.064 625.176 259.893 624.14 259.893C623.183 259.893 622.328 260.064 621.576 260.406C620.836 260.736 620.249 261.186 619.816 261.756C619.394 262.314 619.184 262.935 619.184 263.619L617.133 263.602C617.133 262.907 617.304 262.234 617.646 261.585C617.987 260.936 618.472 260.354 619.098 259.842C619.725 259.329 620.471 258.925 621.337 258.628C622.214 258.321 623.177 258.167 624.225 258.167C625.547 258.167 626.709 258.389 627.711 258.833C628.725 259.278 629.517 259.944 630.087 260.833C630.657 261.722 630.941 262.838 630.941 264.183V273.121C630.941 273.759 630.987 274.419 631.078 275.103C631.181 275.787 631.323 276.351 631.505 276.795V277H629.335C629.198 276.59 629.09 276.077 629.01 275.462C628.942 274.835 628.908 274.243 628.908 273.685ZM629.386 266.233L629.42 267.806H625.404C624.356 267.806 623.416 267.903 622.584 268.096C621.764 268.278 621.069 268.552 620.5 268.917C619.93 269.27 619.491 269.697 619.184 270.198C618.887 270.7 618.739 271.269 618.739 271.907C618.739 272.568 618.904 273.172 619.235 273.719C619.577 274.266 620.055 274.704 620.67 275.035C621.297 275.354 622.038 275.513 622.892 275.513C624.031 275.513 625.034 275.302 625.9 274.881C626.777 274.459 627.501 273.907 628.07 273.223C628.64 272.54 629.022 271.793 629.215 270.984L630.104 272.164C629.956 272.733 629.682 273.32 629.284 273.924C628.896 274.516 628.389 275.075 627.763 275.599C627.136 276.111 626.396 276.533 625.541 276.863C624.698 277.182 623.741 277.342 622.67 277.342C621.462 277.342 620.408 277.114 619.508 276.658C618.62 276.202 617.925 275.582 617.423 274.795C616.933 273.998 616.688 273.098 616.688 272.095C616.688 271.184 616.882 270.369 617.27 269.651C617.657 268.922 618.215 268.307 618.944 267.806C619.685 267.293 620.574 266.906 621.61 266.644C622.659 266.37 623.832 266.233 625.131 266.233H629.386ZM641.605 275.035L647.536 258.509H649.638L642.716 277H641.229L641.605 275.035ZM636.239 258.509L642.238 275.086L642.562 277H641.059L634.12 258.509H636.239ZM655.277 258.509V277H653.244V258.509H655.277ZM652.885 253.16C652.885 252.772 653.004 252.448 653.244 252.186C653.494 251.912 653.836 251.775 654.269 251.775C654.702 251.775 655.044 251.912 655.294 252.186C655.556 252.448 655.688 252.772 655.688 253.16C655.688 253.536 655.556 253.86 655.294 254.134C655.044 254.396 654.702 254.527 654.269 254.527C653.836 254.527 653.494 254.396 653.244 254.134C653.004 253.86 652.885 253.536 652.885 253.16ZM672.709 272.728V258.509H674.76V277H672.794L672.709 272.728ZM673.085 269.31L674.145 269.275C674.145 270.438 674.008 271.508 673.734 272.488C673.461 273.468 673.034 274.323 672.453 275.052C671.872 275.781 671.12 276.345 670.197 276.744C669.274 277.142 668.163 277.342 666.864 277.342C665.964 277.342 665.138 277.216 664.386 276.966C663.646 276.704 663.008 276.294 662.472 275.735C661.937 275.177 661.521 274.454 661.225 273.565C660.94 272.676 660.797 271.6 660.797 270.335V258.509H662.831V270.369C662.831 271.36 662.939 272.186 663.156 272.847C663.384 273.508 663.691 274.038 664.079 274.437C664.477 274.835 664.933 275.12 665.446 275.291C665.958 275.462 666.511 275.547 667.104 275.547C668.607 275.547 669.792 275.257 670.658 274.676C671.535 274.095 672.156 273.331 672.521 272.386C672.897 271.429 673.085 270.403 673.085 269.31ZM682.04 262.337V277H679.989V258.509H681.955L682.04 262.337ZM681.664 266.609L680.673 266.097C680.741 265.003 680.946 263.978 681.288 263.021C681.641 262.063 682.131 261.22 682.758 260.491C683.384 259.762 684.136 259.192 685.014 258.782C685.891 258.372 686.888 258.167 688.004 258.167C688.904 258.167 689.719 258.292 690.448 258.543C691.189 258.782 691.815 259.164 692.328 259.688C692.852 260.201 693.257 260.873 693.542 261.705C693.826 262.536 693.969 263.533 693.969 264.695V277H691.935V264.764C691.935 263.533 691.741 262.57 691.354 261.875C690.978 261.181 690.448 260.685 689.765 260.389C689.092 260.092 688.312 259.944 687.423 259.944C686.375 259.944 685.486 260.161 684.757 260.594C684.04 261.015 683.453 261.568 682.997 262.251C682.553 262.924 682.222 263.647 682.006 264.422C681.789 265.185 681.675 265.914 681.664 266.609ZM693.952 265.003L692.584 265.037C692.641 264.137 692.847 263.277 693.2 262.457C693.564 261.636 694.06 260.907 694.687 260.269C695.313 259.62 696.059 259.107 696.925 258.731C697.803 258.355 698.788 258.167 699.882 258.167C700.839 258.167 701.693 258.298 702.445 258.56C703.197 258.811 703.83 259.215 704.342 259.773C704.866 260.32 705.265 261.021 705.539 261.875C705.812 262.73 705.949 263.755 705.949 264.952V277H703.898V264.935C703.898 263.624 703.704 262.61 703.317 261.893C702.941 261.163 702.417 260.656 701.745 260.372C701.072 260.087 700.286 259.944 699.386 259.944C698.498 259.956 697.717 260.121 697.045 260.44C696.373 260.748 695.809 261.158 695.353 261.67C694.909 262.172 694.567 262.713 694.328 263.294C694.1 263.875 693.974 264.445 693.952 265.003ZM710.956 275.752C710.956 275.354 711.081 275.018 711.332 274.744C711.594 274.459 711.947 274.317 712.392 274.317C712.847 274.317 713.206 274.454 713.468 274.727C713.73 275 713.861 275.342 713.861 275.752C713.861 276.14 713.73 276.47 713.468 276.744C713.206 277.017 712.847 277.154 712.392 277.154C711.947 277.154 711.594 277.017 711.332 276.744C711.081 276.47 710.956 276.14 710.956 275.752ZM726.337 275.582C727.203 275.582 728.012 275.422 728.764 275.103C729.527 274.773 730.154 274.288 730.644 273.65C731.145 273.001 731.43 272.209 731.498 271.275H733.446C733.389 272.448 733.03 273.497 732.37 274.419C731.72 275.331 730.866 276.049 729.806 276.573C728.758 277.085 727.602 277.342 726.337 277.342C725.049 277.342 723.91 277.108 722.919 276.641C721.939 276.174 721.119 275.525 720.458 274.693C719.797 273.85 719.296 272.87 718.954 271.753C718.624 270.625 718.458 269.412 718.458 268.113V267.396C718.458 266.097 718.624 264.889 718.954 263.772C719.296 262.645 719.797 261.665 720.458 260.833C721.119 259.99 721.939 259.335 722.919 258.868C723.899 258.401 725.032 258.167 726.32 258.167C727.641 258.167 728.826 258.435 729.875 258.97C730.934 259.506 731.777 260.263 732.404 261.243C733.042 262.223 733.389 263.385 733.446 264.729H731.498C731.441 263.738 731.179 262.884 730.712 262.166C730.245 261.448 729.63 260.896 728.866 260.508C728.103 260.121 727.254 259.927 726.32 259.927C725.272 259.927 724.377 260.132 723.637 260.542C722.896 260.941 722.292 261.494 721.825 262.2C721.369 262.895 721.033 263.693 720.817 264.593C720.6 265.481 720.492 266.416 720.492 267.396V268.113C720.492 269.104 720.595 270.05 720.8 270.95C721.016 271.839 721.352 272.631 721.808 273.326C722.275 274.021 722.879 274.573 723.62 274.983C724.372 275.382 725.277 275.582 726.337 275.582ZM736.437 268.045V267.481C736.437 266.137 736.631 264.895 737.018 263.755C737.405 262.616 737.958 261.631 738.676 260.799C739.405 259.967 740.277 259.323 741.291 258.868C742.305 258.401 743.432 258.167 744.674 258.167C745.928 258.167 747.061 258.401 748.075 258.868C749.089 259.323 749.961 259.967 750.69 260.799C751.419 261.631 751.977 262.616 752.365 263.755C752.752 264.895 752.946 266.137 752.946 267.481V268.045C752.946 269.389 752.752 270.631 752.365 271.771C751.977 272.898 751.419 273.878 750.69 274.71C749.972 275.542 749.106 276.191 748.092 276.658C747.078 277.114 745.95 277.342 744.708 277.342C743.455 277.342 742.322 277.114 741.308 276.658C740.294 276.191 739.422 275.542 738.693 274.71C737.964 273.878 737.405 272.898 737.018 271.771C736.631 270.631 736.437 269.389 736.437 268.045ZM738.471 267.481V268.045C738.471 269.059 738.607 270.022 738.881 270.933C739.154 271.833 739.553 272.636 740.077 273.343C740.601 274.038 741.251 274.585 742.025 274.983C742.8 275.382 743.694 275.582 744.708 275.582C745.711 275.582 746.594 275.382 747.357 274.983C748.132 274.585 748.782 274.038 749.306 273.343C749.83 272.636 750.223 271.833 750.485 270.933C750.758 270.022 750.895 269.059 750.895 268.045V267.481C750.895 266.478 750.758 265.527 750.485 264.627C750.223 263.727 749.824 262.924 749.289 262.217C748.764 261.511 748.115 260.953 747.34 260.542C746.566 260.132 745.677 259.927 744.674 259.927C743.672 259.927 742.783 260.132 742.008 260.542C741.245 260.953 740.596 261.511 740.06 262.217C739.536 262.924 739.137 263.727 738.864 264.627C738.602 265.527 738.471 266.478 738.471 267.481Z" fill="#84E575"/>
<path d="M157.877 272.362H150.431L148.759 277H146.342L153.129 259.227H155.18L161.979 277H159.574L157.877 272.362ZM151.139 270.433H157.182L154.154 262.12L151.139 270.433ZM174.186 272.362H166.74L165.067 277H162.65L169.438 259.227H171.488L178.288 277H175.883L174.186 272.362ZM167.448 270.433H173.49L170.463 262.12L167.448 270.433Z" fill="white"/>
<path d="M178.353 110.475C177.249 111.559 175.96 112.101 174.485 112.101C172.601 112.101 171.092 111.456 169.959 110.167C168.826 108.868 168.26 107.12 168.26 104.923C168.26 103.527 168.562 102.247 169.168 101.085C169.783 99.9133 170.638 99.0051 171.731 98.3606C172.825 97.7063 174.056 97.3792 175.423 97.3792C176.829 97.3792 178.079 97.7307 179.173 98.4338C180.267 99.137 181.116 100.148 181.722 101.466C182.327 102.784 182.635 104.293 182.645 105.992V107.56C182.645 111.115 181.761 113.907 179.993 115.939C178.226 117.97 175.721 119.054 172.479 119.191L171.438 119.205V115.675L172.376 115.66C176.058 115.494 178.05 113.766 178.353 110.475ZM175.525 108.864C176.209 108.864 176.795 108.688 177.283 108.336C177.781 107.985 178.157 107.56 178.411 107.062V105.319C178.411 103.883 178.138 102.77 177.591 101.979C177.044 101.188 176.312 100.792 175.394 100.792C174.544 100.792 173.846 101.183 173.299 101.964C172.752 102.736 172.479 103.707 172.479 104.879C172.479 106.041 172.742 106.998 173.27 107.75C173.807 108.492 174.559 108.864 175.525 108.864ZM186.058 116.92C186.058 116.246 186.282 115.699 186.731 115.28C187.19 114.86 187.762 114.65 188.445 114.65C189.139 114.65 189.71 114.86 190.159 115.28C190.618 115.699 190.848 116.246 190.848 116.92C190.848 117.584 190.623 118.126 190.174 118.546C189.725 118.956 189.148 119.161 188.445 119.161C187.752 119.161 187.181 118.956 186.731 118.546C186.282 118.126 186.058 117.584 186.058 116.92ZM186.058 104.923C186.058 104.249 186.282 103.702 186.731 103.282C187.19 102.863 187.762 102.653 188.445 102.653C189.139 102.653 189.71 102.863 190.159 103.282C190.618 103.702 190.848 104.249 190.848 104.923C190.848 105.587 190.623 106.129 190.174 106.549C189.725 106.959 189.148 107.164 188.445 107.164C187.752 107.164 187.181 106.959 186.731 106.549C186.282 106.129 186.058 105.587 186.058 104.923ZM206.668 110.973H209.085V114.386H206.668V119H202.435V114.386H193.689L193.499 111.72L202.391 97.6721H206.668V110.973ZM197.718 110.973H202.435V103.444L202.156 103.927L197.718 110.973ZM221.653 119H217.42V102.682L212.366 104.249V100.807L221.199 97.6428H221.653V119Z" fill="white"/>
<path fill-rule="evenodd" clip-rule="evenodd" d="M416.559 262.829V260.029C416.56 257.328 415.12 254.832 412.781 253.482C410.442 252.131 407.56 252.131 405.222 253.482C402.883 254.833 401.443 257.329 401.444 260.03V262.829H398.959V269.488C398.959 275.034 403.454 279.529 409 279.529C414.545 279.529 419.041 275.034 419.041 269.488V262.829H416.559ZM409.794 272.229V274.701H408.207V272.231C406.811 271.836 405.92 270.471 406.12 269.034C406.32 267.597 407.549 266.527 409 266.527C410.45 266.527 411.679 267.597 411.879 269.034C412.078 270.471 411.188 271.836 409.792 272.231L409.794 272.229ZM414.973 262.829H403.028V260.029C403.028 256.731 405.702 254.057 409 254.057C412.298 254.057 414.972 256.731 414.972 260.029L414.973 262.829Z" fill="#80E770"/>
</svg>
